<svg width="21" height="21" viewBox="0 0 21 21" fill="none" xmlns="http://www.w3.org/2000/svg">
<g id="Menu - Allies - Icon">
<path id="bx-store" d="M18.0054 1.01955C17.8183 0.709299 17.5544 0.452498 17.2392 0.273915C16.9239 0.0953321 16.568 0.00099396 16.2057 0H4.7943C4.432 0.00099396 4.07607 0.0953321 3.76083 0.273915C3.4456 0.452498 3.1817 0.709299 2.9946 1.01955L0.15015 5.75925C0.0519643 5.92254 6.03025e-05 6.10947 0 6.3C0.00409714 7.31349 0.377385 8.29076 1.05 9.0489V17.85C1.05 18.407 1.27125 18.9411 1.66508 19.3349C2.0589 19.7288 2.59305 19.95 3.15 19.95H17.85C18.407 19.95 18.9411 19.7288 19.3349 19.3349C19.7288 18.9411 19.95 18.407 19.95 17.85V9.0489C20.6226 8.29076 20.9959 7.31349 21 6.3C20.9999 6.10947 20.948 5.92254 20.8498 5.75925L18.0054 1.01955ZM18.8832 6.56355C18.8158 7.09311 18.5493 7.57713 18.1378 7.9172C17.7263 8.25727 17.2007 8.42787 16.668 8.3943C16.1352 8.36073 15.6352 8.12553 15.2696 7.7365C14.9041 7.34747 14.7004 6.83383 14.7 6.3C14.6939 6.23149 14.6801 6.16388 14.659 6.0984H14.68L13.881 2.1H16.2057L18.8832 6.56355ZM9.25995 2.1H11.739L12.5926 6.36825C12.5754 6.91178 12.3474 7.42729 11.9568 7.80568C11.5663 8.18407 11.0438 8.39565 10.5 8.39565C9.9562 8.39565 9.43373 8.18407 9.04316 7.80568C8.65259 7.42729 8.42457 6.91178 8.40735 6.36825L9.25995 2.1ZM4.7943 2.1H7.119L6.321 6.09H6.342C6.31942 6.15801 6.30531 6.22854 6.3 6.3C6.29961 6.83383 6.09593 7.34747 5.73037 7.7365C5.36481 8.12553 4.86482 8.36073 4.33204 8.3943C3.79927 8.42787 3.27371 8.25727 2.86222 7.9172C2.45072 7.57713 2.18419 7.09311 2.1168 6.56355L4.7943 2.1ZM8.4 17.85V14.7H12.6V17.85H8.4ZM14.7 17.85V14.7C14.7 14.143 14.4787 13.6089 14.0849 13.2151C13.6911 12.8213 13.157 12.6 12.6 12.6H8.4C7.84304 12.6 7.3089 12.8213 6.91508 13.2151C6.52125 13.6089 6.3 14.143 6.3 14.7V17.85H3.15V10.3509C3.89897 10.5588 4.69164 10.5492 5.43537 10.3233C6.17911 10.0974 6.84318 9.66448 7.35 9.07515C7.74367 9.52281 8.22824 9.88142 8.77141 10.1271C9.31457 10.3727 9.90386 10.4998 10.5 10.4998C11.0961 10.4998 11.6854 10.3727 12.2286 10.1271C12.7718 9.88142 13.2563 9.52281 13.65 9.07515C14.1568 9.66448 14.8209 10.0974 15.5646 10.3233C16.3084 10.5492 17.101 10.5588 17.85 10.3509V17.85H14.7Z" fill="#686E7F"/>
</g>
</svg>
