<svg width="19" height="18" viewBox="0 0 19 18" fill="none" xmlns="http://www.w3.org/2000/svg">
<path id="Vector" d="M17.2188 18H1.78125C0.79748 18 0 16.9927 0 15.75V2.25C0 1.00734 0.79748 0 1.78125 0H17.2188C18.2025 0 19 1.00734 19 2.25V15.75C19 16.9927 18.2025 18 17.2188 18ZM4.15625 2.625C3.00853 2.625 2.07812 3.80025 2.07812 5.25C2.07812 6.69975 3.00853 7.875 4.15625 7.875C5.30397 7.875 6.23438 6.69975 6.23438 5.25C6.23438 3.80025 5.30397 2.625 4.15625 2.625ZM2.375 15H16.625V9.75L13.3774 5.64773C13.2035 5.42808 12.9215 5.42808 12.7476 5.64773L7.71875 12L5.65862 9.39773C5.48473 9.17808 5.20277 9.17808 5.02884 9.39773L2.375 12.75V15Z" fill="#FF7400"/>
</svg>
