<svg width="33" height="21" viewBox="0 0 33 21" fill="none" xmlns="http://www.w3.org/2000/svg">
	<g id="Group 7199">
		<g id="Group 7195">
			<g id="Group 7189">
				<g id="Group 7188">
					<g id="Vector 4 (Stroke)">
						<path fill-rule="evenodd" clip-rule="evenodd"
							d="M22.5204 1.00476C18.9996 1.11297 15.5 3.5 17.5 6.169L18 6.98772L18.5 9.5V15L29.2013 19.517L29.2827 19.4828C29.9678 19.1944 30.4455 18.8796 30.8074 18.4323C31.1662 17.9888 31.3965 17.4324 31.6198 16.6911L31.6289 16.6609V14.0981C31.9275 12.4821 32.0495 11.2787 31.9818 10.1908C31.9137 9.09615 31.6543 8.12992 31.2054 6.98772C29.6328 2.64035 26.0561 0.89609 22.5204 1.00476ZM30.8636 7.27494C31.2702 8.33221 31.4985 9.22147 31.5604 10.2174C31.6252 11.2584 31.509 12.4273 31.2103 14.0394L31.2067 14.0588V14.0603C29.61 13.9247 28.4136 13.7357 27.3776 13.4045C26.3267 13.0684 25.4328 12.5834 24.4516 11.8464V10.4557L21.9863 8.83659C21.7495 8.17926 21.7661 7.62722 21.9555 7.22372C22.1417 6.82724 22.5105 6.54015 23.054 6.43354C24.9552 7.25726 26.7732 7.26238 29.825 7.27097C30.1561 7.2719 30.5018 7.27287 30.8636 7.27494ZM31.2067 14.487C29.5804 14.3502 28.3375 14.1575 27.2498 13.8097C26.1152 13.4469 25.1583 12.9182 24.1131 12.1222L24.0294 12.0584V10.686L21.6403 9.11693L21.6158 9.05267C21.3264 8.2939 21.3151 7.59311 21.5738 7.04198C21.8352 6.48532 22.3547 6.11903 23.0447 6.00321L23.1067 5.99281L23.1642 6.01823C25.0021 6.83021 26.731 6.83571 29.8404 6.84559C30.1162 6.84646 30.4028 6.84737 30.7013 6.84889C29.1497 2.90568 25.8344 1.32827 22.5333 1.42973C19.1564 1.53352 16.5 3.5 18 6.43354L18.5 9.5V14.487L29.2005 19.056C29.8023 18.7939 30.1902 18.522 30.48 18.1638C30.7814 17.7913 30.991 17.3081 31.2067 16.5977V14.487Z"
							fill="#8D92A0" />
						<path
							d="M18.5 9.5L18 6.43354C16.5 3.5 19.1564 1.53352 22.5333 1.42973C25.8344 1.32827 29.1497 2.90568 30.7013 6.84889C30.4028 6.84737 30.1162 6.84646 29.8404 6.84559C26.731 6.83571 25.0021 6.83021 23.1642 6.01823L23.1067 5.99281L23.0447 6.00321C22.3547 6.11903 21.8352 6.48532 21.5738 7.04198C21.3151 7.59311 21.3264 8.2939 21.6158 9.05267L21.6403 9.11693L24.0294 10.686V12.0584L24.1131 12.1222C25.1583 12.9182 26.1152 13.4469 27.2498 13.8097C28.3375 14.1575 29.5804 14.3502 31.2067 14.487V16.5977C30.991 17.3081 30.7814 17.7913 30.48 18.1638C30.1902 18.522 29.8023 18.7939 29.2005 19.056L18.5 14.487V9.5ZM18.5 9.5V15L29.2013 19.517L29.2827 19.4828C29.9678 19.1944 30.4455 18.8796 30.8074 18.4323C31.1662 17.9888 31.3965 17.4324 31.6198 16.6911L31.6289 16.6609V14.0981C31.9275 12.4821 32.0495 11.2787 31.9818 10.1908C31.9137 9.09615 31.6543 8.12992 31.2054 6.98772C29.6328 2.64035 26.0561 0.89609 22.5204 1.00476C18.9996 1.11297 15.5 3.5 17.5 6.169L18 6.98772L18.5 9.5ZM31.5604 10.2174C31.4985 9.22147 31.2702 8.33221 30.8636 7.27494C30.5018 7.27287 30.1561 7.2719 29.825 7.27097C26.7732 7.26238 24.9552 7.25726 23.054 6.43354C22.5105 6.54015 22.1417 6.82724 21.9555 7.22372C21.7661 7.62722 21.7495 8.17926 21.9863 8.83659L24.4516 10.4557V11.8464C25.4328 12.5834 26.3267 13.0684 27.3776 13.4045C28.4136 13.7357 29.61 13.9247 31.2067 14.0603V14.0588L31.2103 14.0394C31.509 12.4273 31.6252 11.2584 31.5604 10.2174Z"
							stroke="#8D92A0" stroke-width="1.2" />
					</g>
				</g>
				<path id="Ellipse 46"
					d="M21.9918 13.2282C21.9918 13.1943 21.9634 13.1597 21.9195 13.1597C21.8757 13.1597 21.8473 13.1943 21.8473 13.2282C21.8473 13.2621 21.8757 13.2968 21.9195 13.2968C21.9634 13.2968 21.9918 13.2621 21.9918 13.2282Z"
					fill="none" fill-opacity="0.01" stroke="#8D92A0" stroke-width="1.2" />
			</g>
			<path id="Ellipse 47"
				d="M22.8899 7.90883C22.8899 7.99235 22.956 8.05287 23.0287 8.05287C23.1015 8.05287 23.1676 7.99235 23.1676 7.90883C23.1676 7.82531 23.1015 7.76479 23.0287 7.76479C22.956 7.76479 22.8899 7.82531 22.8899 7.90883Z"
				fill="none" fill-opacity="0.01" stroke="#8D92A0" stroke-width="1.2" />
			<g id="Ellipse 47 (Stroke)">
				<mask id="path-5-inside-1_11938_54076" fill="none">
					<path fill-rule="evenodd" clip-rule="evenodd"
						d="M23.0287 8.44028C22.7373 8.44028 22.501 8.20234 22.501 7.90883C22.501 7.61532 22.7373 7.37738 23.0287 7.37738C23.3202 7.37738 23.5565 7.61532 23.5565 7.90883C23.5565 8.20234 23.3202 8.44028 23.0287 8.44028ZM23.0287 8.65287C22.6207 8.65287 22.2899 8.31975 22.2899 7.90883C22.2899 7.49791 22.6207 7.16479 23.0287 7.16479C23.4368 7.16479 23.7676 7.49791 23.7676 7.90883C23.7676 8.31975 23.4368 8.65287 23.0287 8.65287Z" />
				</mask>
				<path fill-rule="evenodd" clip-rule="evenodd"
					d="M23.0287 8.44028C22.7373 8.44028 22.501 8.20234 22.501 7.90883C22.501 7.61532 22.7373 7.37738 23.0287 7.37738C23.3202 7.37738 23.5565 7.61532 23.5565 7.90883C23.5565 8.20234 23.3202 8.44028 23.0287 8.44028ZM23.0287 8.65287C22.6207 8.65287 22.2899 8.31975 22.2899 7.90883C22.2899 7.49791 22.6207 7.16479 23.0287 7.16479C23.4368 7.16479 23.7676 7.49791 23.7676 7.90883C23.7676 8.31975 23.4368 8.65287 23.0287 8.65287Z"
					fill="#8D92A0" />
				<path
					d="M23.701 7.90883C23.701 7.54754 23.4079 7.24028 23.0287 7.24028V9.64028C22.0666 9.64028 21.301 8.85715 21.301 7.90883H23.701ZM23.0287 8.57738C23.4079 8.57738 23.701 8.27012 23.701 7.90883H21.301C21.301 6.96051 22.0666 6.17738 23.0287 6.17738V8.57738ZM22.3565 7.90883C22.3565 8.27012 22.6495 8.57738 23.0287 8.57738V6.17738C23.9909 6.17738 24.7565 6.96051 24.7565 7.90883H22.3565ZM23.0287 7.24028C22.6495 7.24028 22.3565 7.54754 22.3565 7.90883H24.7565C24.7565 8.85715 23.9909 9.64028 23.0287 9.64028V7.24028ZM23.4899 7.90883C23.4899 7.66495 23.2913 7.45287 23.0287 7.45287V9.85287C21.95 9.85287 21.0899 8.97455 21.0899 7.90883H23.4899ZM23.0287 8.36479C23.2913 8.36479 23.4899 8.15271 23.4899 7.90883H21.0899C21.0899 6.84311 21.95 5.96479 23.0287 5.96479V8.36479ZM22.5676 7.90883C22.5676 8.15271 22.7661 8.36479 23.0287 8.36479V5.96479C24.1074 5.96479 24.9676 6.84311 24.9676 7.90883H22.5676ZM23.0287 7.45287C22.7661 7.45287 22.5676 7.66495 22.5676 7.90883H24.9676C24.9676 8.97455 24.1074 9.85287 23.0287 9.85287V7.45287Z"
					fill="#8D92A0" mask="url(#path-5-inside-1_11938_54076)" />
			</g>
			<path id="Ellipse 48"
				d="M21.412 12.7984C21.412 12.6471 21.2891 12.5172 21.1287 12.5172C20.9682 12.5172 20.8453 12.6471 20.8453 12.7984C20.8453 12.9497 20.9682 13.0795 21.1287 13.0795C21.2891 13.0795 21.412 12.9497 21.412 12.7984Z"
				fill="#C4C4C4" fill-opacity="0.01" stroke="#8D92A0" stroke-width="1.2" />
			<path id="Ellipse 48 (Stroke)"
				d="M21.412 12.7984C21.412 12.6471 21.2891 12.5172 21.1287 12.5172C20.9682 12.5172 20.8453 12.6471 20.8453 12.7984C20.8453 12.9497 20.9682 13.0795 21.1287 13.0795C21.2891 13.0795 21.412 12.9497 21.412 12.7984ZM21.1287 13.0109C21.0121 13.0109 20.9176 12.9158 20.9176 12.7984C20.9176 12.681 21.0121 12.5858 21.1287 12.5858C21.2453 12.5858 21.3398 12.681 21.3398 12.7984C21.3398 12.9158 21.2453 13.0109 21.1287 13.0109Z"
				fill="#8D92A0" stroke="#8D92A0" stroke-width="1.2" />
		</g>
		<g id="Group 7194">
			<g id="Group 7189_2">
				<g id="Group 7188_2">
					<path id="Vector 4 (Stroke)_2" fill-rule="evenodd" clip-rule="evenodd"
						d="M9.52041 1.00476C5.99961 1.11297 2.48878 3.05945 1.02318 6.12058L1 6.169L1.32527 13.2661L16.2013 19.517L16.2827 19.4828C16.9678 19.1944 17.4455 18.8796 17.8074 18.4323C18.1662 17.9888 18.3965 17.4324 18.6198 16.6911L18.6289 16.6609V14.0981C18.9275 12.4821 19.0495 11.2787 18.9818 10.1908C18.9137 9.09615 18.6543 8.12992 18.2054 6.98772C16.6328 2.64035 13.0561 0.89609 9.52041 1.00476ZM17.8636 7.27494C18.2702 8.33221 18.4985 9.22147 18.5604 10.2174C18.6252 11.2584 18.509 12.4273 18.2103 14.0394L18.2067 14.0588V14.0603C16.61 13.9247 15.4136 13.7357 14.3776 13.4045C13.3267 13.0684 12.4328 12.5834 11.4516 11.8464V10.4557L8.9863 8.83659C8.74946 8.17926 8.76605 7.62722 8.95551 7.22372C9.14166 6.82724 9.51047 6.54015 10.054 6.43354C11.9552 7.25726 13.7732 7.26238 16.825 7.27097C17.1561 7.2719 17.5018 7.27287 17.8636 7.27494ZM18.2067 14.487C16.5804 14.3502 15.3375 14.1575 14.2498 13.8097C13.1152 13.4469 12.1583 12.9182 11.1131 12.1222L11.0294 12.0584V10.686L8.64028 9.11693L8.61578 9.05267C8.32645 8.2939 8.31506 7.59311 8.57383 7.04198C8.83519 6.48532 9.35466 6.11903 10.0447 6.00321L10.1067 5.99281L10.1642 6.01823C12.0021 6.83021 13.731 6.83571 16.8404 6.84559C17.1162 6.84646 17.4028 6.84737 17.7013 6.84889C16.1497 2.90568 12.8344 1.32827 9.53329 1.42973C6.15637 1.53352 2.82484 3.39329 1.42669 6.25723L1.73469 12.9775L16.2005 19.056C16.8023 18.7939 17.1902 18.522 17.48 18.1638C17.7814 17.7913 17.991 17.3081 18.2067 16.5977V14.487Z"
						fill="#8D92A0" stroke="#8D92A0" stroke-width="1.2" />
				</g>
				<path id="Ellipse 46_2"
					d="M8.99178 13.2282C8.99178 13.1943 8.96338 13.1597 8.91952 13.1597C8.87566 13.1597 8.84727 13.1943 8.84727 13.2282C8.84727 13.2621 8.87566 13.2968 8.91952 13.2968C8.96338 13.2968 8.99178 13.2621 8.99178 13.2282Z"
					fill="none" fill-opacity="0.01" stroke="#8D92A0" stroke-width="1.2" />
			</g>
			<path id="Ellipse 47_2"
				d="M9.8899 7.90883C9.8899 7.99235 9.95601 8.05287 10.0287 8.05287C10.1015 8.05287 10.1676 7.99235 10.1676 7.90883C10.1676 7.82531 10.1015 7.76479 10.0287 7.76479C9.95601 7.76479 9.8899 7.82531 9.8899 7.90883Z"
				fill="none" fill-opacity="0.01" stroke="#8D92A0" stroke-width="1.2" />
			<g id="Ellipse 47 (Stroke)_2">
				<mask id="path-12-inside-2_11938_54076" fill="none">
					<path fill-rule="evenodd" clip-rule="evenodd"
						d="M10.0287 8.44028C9.73727 8.44028 9.50099 8.20234 9.50099 7.90883C9.50099 7.61532 9.73727 7.37738 10.0287 7.37738C10.3202 7.37738 10.5565 7.61532 10.5565 7.90883C10.5565 8.20234 10.3202 8.44028 10.0287 8.44028ZM10.0287 8.65287C9.62069 8.65287 9.2899 8.31975 9.2899 7.90883C9.2899 7.49791 9.62069 7.16479 10.0287 7.16479C10.4368 7.16479 10.7676 7.49791 10.7676 7.90883C10.7676 8.31975 10.4368 8.65287 10.0287 8.65287Z" />
				</mask>
				<path fill-rule="evenodd" clip-rule="evenodd"
					d="M10.0287 8.44028C9.73727 8.44028 9.50099 8.20234 9.50099 7.90883C9.50099 7.61532 9.73727 7.37738 10.0287 7.37738C10.3202 7.37738 10.5565 7.61532 10.5565 7.90883C10.5565 8.20234 10.3202 8.44028 10.0287 8.44028ZM10.0287 8.65287C9.62069 8.65287 9.2899 8.31975 9.2899 7.90883C9.2899 7.49791 9.62069 7.16479 10.0287 7.16479C10.4368 7.16479 10.7676 7.49791 10.7676 7.90883C10.7676 8.31975 10.4368 8.65287 10.0287 8.65287Z"
					fill="#8D92A0" />
				<path
					d="M10.701 7.90883C10.701 7.54754 10.4079 7.24028 10.0287 7.24028V9.64028C9.06662 9.64028 8.30099 8.85715 8.30099 7.90883H10.701ZM10.0287 8.57738C10.4079 8.57738 10.701 8.27012 10.701 7.90883H8.30099C8.30099 6.96051 9.06662 6.17738 10.0287 6.17738V8.57738ZM9.35648 7.90883C9.35648 8.27012 9.64955 8.57738 10.0287 8.57738V6.17738C10.9909 6.17738 11.7565 6.96051 11.7565 7.90883H9.35648ZM10.0287 7.24028C9.64955 7.24028 9.35648 7.54754 9.35648 7.90883H11.7565C11.7565 8.85715 10.9909 9.64028 10.0287 9.64028V7.24028ZM10.4899 7.90883C10.4899 7.66495 10.2913 7.45287 10.0287 7.45287V9.85287C8.95003 9.85287 8.0899 8.97455 8.0899 7.90883H10.4899ZM10.0287 8.36479C10.2913 8.36479 10.4899 8.15271 10.4899 7.90883H8.0899C8.0899 6.84311 8.95003 5.96479 10.0287 5.96479V8.36479ZM9.56758 7.90883C9.56758 8.15271 9.76613 8.36479 10.0287 8.36479V5.96479C11.1074 5.96479 11.9676 6.84311 11.9676 7.90883H9.56758ZM10.0287 7.45287C9.76613 7.45287 9.56758 7.66495 9.56758 7.90883H11.9676C11.9676 8.97455 11.1074 9.85287 10.0287 9.85287V7.45287Z"
					fill="#8D92A0" mask="url(#path-12-inside-2_11938_54076)" />
			</g>
			<path id="Ellipse 48_2"
				d="M8.41202 12.7984C8.41202 12.6471 8.28911 12.5172 8.12867 12.5172C7.96822 12.5172 7.84531 12.6471 7.84531 12.7984C7.84531 12.9497 7.96822 13.0795 8.12867 13.0795C8.28911 13.0795 8.41202 12.9497 8.41202 12.7984Z"
				fill="#C4C4C4" fill-opacity="0.01" stroke="#8D92A0" stroke-width="1.2" />
			<path id="Ellipse 48 (Stroke)_2"
				d="M8.41202 12.7984C8.41202 12.6471 8.28911 12.5172 8.12867 12.5172C7.96822 12.5172 7.84531 12.6471 7.84531 12.7984C7.84531 12.9497 7.96822 13.0795 8.12867 13.0795C8.28911 13.0795 8.41202 12.9497 8.41202 12.7984ZM8.12867 13.0109C8.01208 13.0109 7.91757 12.9158 7.91757 12.7984C7.91757 12.681 8.01208 12.5858 8.12867 12.5858C8.24525 12.5858 8.33976 12.681 8.33976 12.7984C8.33976 12.9158 8.24525 13.0109 8.12867 13.0109Z"
				fill="#8D92A0" stroke="#8D92A0" stroke-width="1.2" />
		</g>
	</g>
</svg>
