<svg width="25" height="23" viewBox="0 0 25 23" fill="none" xmlns="http://www.w3.org/2000/svg">
<path id="Star 3" d="M16.8848 19.9837L16.8848 19.9836H16.875C16.6229 19.9836 16.3742 20.0416 16.1481 20.1531L15.0755 20.682L13.7923 21.1176L12.4633 21.382L11.1111 21.4706L9.75892 21.382L8.42988 21.1176L7.14671 20.682L5.93135 20.0827L4.80465 19.3299L3.78583 18.4364L2.89237 17.4176L2.13952 16.2909L1.54018 15.0755L1.1046 13.7923L0.840236 12.4633L0.751609 11.1111L0.840236 9.75893L1.1046 8.42987L1.54018 7.1467L2.13952 5.93136L2.89237 4.80465L3.78584 3.78584L4.80465 2.89237L5.93136 2.13952L7.1467 1.54018L8.42987 1.1046L9.75893 0.840236L11.1111 0.751609L12.4633 0.840236L13.7923 1.1046L15.0755 1.54018L16.2909 2.13952L17.4176 2.89237L18.4364 3.78583L19.3299 4.80465L20.0827 5.93135L20.682 7.14671L21.1176 8.42988L21.382 9.75892L21.4706 11.1111L21.3883 12.3662C21.3858 12.4051 21.3787 12.4435 21.3673 12.4807L20.8271 14.2354C20.6569 14.7883 20.7344 15.3878 21.0397 15.8792L23.6441 20.0719L16.8848 19.9837Z" fill="#F5F6F7" fill-opacity="0.01" stroke="#686E7F" stroke-width="1.5"/>
</svg>
