<svg width="18" height="18" viewBox="0 0 18 18" fill="none" xmlns="http://www.w3.org/2000/svg">
<g id="camion-de-reparto-logistico-en-movimiento 38">
<g id="Group">
<g id="Group_2">
<path id="Vector" d="M6.66953 11.0397C5.83868 11.0397 5.16724 11.7135 5.16724 12.5444C5.16724 13.3728 5.83868 14.0467 6.66953 14.0467C7.50038 14.0467 8.17182 13.3728 8.17182 12.5444C8.17179 11.7135 7.50038 11.0397 6.66953 11.0397ZM6.66953 13.2956C6.25409 13.2956 5.91835 12.9574 5.91835 12.5444C5.91835 12.129 6.25409 11.7932 6.66953 11.7932C7.08494 11.7932 7.42068 12.129 7.42068 12.5444C7.42065 12.9574 7.08494 13.2956 6.66953 13.2956ZM18 9.92828V11.5324C18 11.9326 17.6756 12.257 17.2754 12.257H16.5001C16.36 11.2957 15.5316 10.5566 14.5317 10.5566C13.5342 10.5566 12.7057 11.2957 12.5656 12.257H8.63603C8.49594 11.2957 7.6675 10.5566 6.67 10.5566C5.6725 10.5566 4.84406 11.2957 4.704 12.257H3.73306C3.33288 12.257 3.0085 11.9326 3.0085 11.5324V9.92828H18ZM14.5336 11.0397C13.7028 11.0397 13.0289 11.7135 13.0289 12.5444C13.0289 13.3728 13.7028 14.0467 14.5336 14.0467C15.362 14.0467 16.0359 13.3728 16.0359 12.5444C16.0359 11.7135 15.362 11.0397 14.5336 11.0397ZM14.5336 13.2956C14.1182 13.2956 13.7825 12.9574 13.7825 12.5444C13.7825 12.129 14.1182 11.7932 14.5336 11.7932C14.9466 11.7932 15.2848 12.129 15.2848 12.5444C15.2848 12.9574 14.9466 13.2956 14.5336 13.2956ZM17.7145 8.31287L14.8669 5.49666C14.6858 5.31793 14.4419 5.21648 14.1882 5.21648H12.7512V4.67787C12.7512 4.27695 12.4275 3.95331 12.0266 3.95331H3.73256C3.33403 3.95331 3.008 4.27698 3.008 4.67787V4.7914L0.0676471 5.13028L5.27782 5.80875L0 6.33304L5.25924 7.08078L0 7.53678L3.00818 8.10413L3.00797 9.52775H17.9995V8.99878C17.9995 8.74034 17.8956 8.49401 17.7145 8.31287ZM16.4731 8.40704H13.7173C13.6545 8.40704 13.6037 8.35634 13.6037 8.29354V6.16569C13.6037 6.1029 13.6545 6.05216 13.7173 6.05216H14.2414C14.2704 6.05216 14.2994 6.06425 14.3211 6.08357L16.5504 8.21142C16.6252 8.28145 16.5745 8.40704 16.4731 8.40704Z" fill="#FF7400"/>
</g>
</g>
</g>
</svg>
