<svg width="15" height="16" viewBox="0 0 15 16" fill="none" xmlns="http://www.w3.org/2000/svg">
<path fill-rule="evenodd" clip-rule="evenodd" d="M10.296 3.01842C11.1195 3.01842 11.9422 3.33134 12.5692 3.95797C13.1692 4.55859 13.5 5.35548 13.5 6.20203C13.5 7.04778 13.1692 7.84467 12.5692 8.44529L7.5 13.5151L2.43075 8.44529C1.83075 7.84467 1.5 7.04778 1.5 6.20202C1.5 5.35627 1.83075 4.55859 2.43075 3.95797C3.684 2.70471 5.724 2.70471 6.97725 3.95797L7.5 4.48135L8.02275 3.95797C8.64975 3.33134 9.4725 3.01842 10.296 3.01842ZM7.5 15.054L13.6147 8.93818C14.508 8.04514 15 6.85572 15 5.58905C15 4.32239 14.508 3.13297 13.6147 2.23913C11.9497 0.573631 9.336 0.42387 7.5 1.78748C5.664 0.423869 3.05025 0.57363 1.38525 2.23913C0.492 3.13297 -3.0215e-07 4.32239 -4.12885e-07 5.58905C-5.23621e-07 6.85572 0.492 8.04513 1.38525 8.93818L7.5 15.054Z" fill="#8D92A0"/>
</svg>
