<svg width="15" height="15" viewBox="0 0 15 15" fill="none" xmlns="http://www.w3.org/2000/svg">
<path fill-rule="evenodd" clip-rule="evenodd" d="M4.704 1.69952C3.8805 1.69952 3.05775 2.01718 2.43075 2.65331C1.83075 3.26303 1.5 4.07199 1.5 4.93136C1.5 5.78993 1.83075 6.59889 2.43075 7.20861L7.5 12.3552L12.5693 7.20861C13.1692 6.59889 13.5 5.78993 13.5 4.93136C13.5 4.07279 13.1692 3.26303 12.5693 2.65331C11.316 1.38105 9.276 1.38105 8.02275 2.65331L7.5 3.18461L6.97725 2.65331C6.35025 2.01718 5.5275 1.69952 4.704 1.69952ZM7.5 14.5397L1.38525 8.33123C0.492 7.42465 0 6.21721 0 4.93136C0 3.6455 0.492 2.43806 1.38525 1.53068C3.05025 -0.160055 5.664 -0.312086 7.5 1.07219C9.336 -0.312086 11.9497 -0.160055 13.6147 1.53068C14.508 2.43806 15 3.6455 15 4.93136C15 6.21721 14.508 7.42465 13.6147 8.33123L7.5 14.5397Z" fill="#8D92A0"/>
</svg>
