<svg width="20" height="20" viewBox="0 0 20 20" fill="none" xmlns="http://www.w3.org/2000/svg">
<path d="M0.999787 11H1.99979V18C1.99979 18.5305 2.2105 19.0392 2.58557 19.4142C2.96065 19.7893 3.46935 20 3.99979 20H15.9998C16.5302 20 17.0389 19.7893 17.414 19.4142C17.7891 19.0392 17.9998 18.5305 17.9998 18V11H18.9998C19.1975 11 19.3908 10.9413 19.5552 10.8314C19.7197 10.7215 19.8478 10.5654 19.9235 10.3827C19.9991 10.2 20.0189 9.99895 19.9804 9.805C19.9418 9.61105 19.8466 9.43288 19.7068 9.29303L10.7068 0.293031C10.5193 0.105559 10.265 0.000244141 9.99979 0.000244141C9.73462 0.000244141 9.48032 0.105559 9.29279 0.293031L0.292787 9.29303C0.152977 9.43288 0.057771 9.61105 0.0192035 9.805C-0.0193641 9.99895 0.000438951 10.2 0.076109 10.3827C0.151779 10.5654 0.279918 10.7215 0.444328 10.8314C0.608738 10.9413 0.802037 11 0.999787 11ZM9.99979 2.41403L15.9998 8.41403V13V18H3.99979V8.41403L9.99979 2.41403Z" fill="#686E7F"/>
<path d="M9.99983 16.0001C11.103 15.9648 12.1689 15.5923 13.054 14.9327C13.939 14.2731 14.6007 13.3582 14.9498 12.3111L13.0498 11.6901C12.8297 12.3353 12.4217 12.9 11.8782 13.3117C11.3347 13.7233 10.6806 13.963 9.99983 14.0001C9.31779 13.9641 8.66229 13.7241 8.11829 13.3111C7.57428 12.8982 7.16686 12.3313 6.94883 11.6841L5.04883 12.3111C5.39806 13.3583 6.05986 14.2734 6.94509 14.933C7.83032 15.5926 8.89644 15.965 9.99983 16.0001Z" fill="#686E7F"/>
</svg>
