<svg width="31" height="39" viewBox="0 0 31 31" fill="none" xmlns="http://www.w3.org/2000/svg">
	<g filter="url(#filter0_d_11932_51918)" id="icono guante2">
		<path id="Vector 32"
			d="M25.1207 15.0491C26.9694 15.7537 27.2443 16.4196 26.5964 18.0611L20.0561 23.0083L16.4995 29.9797L14.0158 27.9596M25.1207 15.0491C25.9687 12.905 25.4768 12.3646 23.141 12.533M25.1207 15.0491L21.0966 18.0166C19.3084 17.1507 18.7803 16.5516 19.6209 15.0045L23.141 12.533M23.141 12.533L29.9531 5.26942C30.5062 2.74094 29.4983 2.1667 26.9531 3.26942L21.6654 9.52091L20.6695 9.01283L24.218 3.04137C24.0753 1.24644 23.6454 0.747339 21.7302 1.52117L16.6737 8.48045M21.5965 18.0206C20.6995 19.6956 21.1592 20.1948 23.0763 20.5327M16.6737 8.48045L20.6411 12.5127C20.0827 14.97 17.1688 14.0649 15.1332 13.4681M16.6737 8.48045C14.3109 10.1327 13.6132 11.6353 13.1211 14.9519L10.0969 17.9275M10.0969 17.9275L8.60508 16.9154L4.45312 19.2694L6.07276 20.895M10.0969 17.9275L17.5643 21.9881M6.07276 20.895L2.04859 23.8625L13.0077 28.9514L14.0158 27.9596M6.07276 20.895L14.0158 27.9596"
			stroke="#FF7400" stroke-width="1.2" />
	</g>

	<defs>
		<filter id="filter0_d_11932_51918" x="0.0722656" y="0.669067" width="37.5273" height="38.0889"
			filterUnits="userSpaceOnUse" color-interpolation-filters="sRGB">
			<feFlood flood-opacity="0" result="BackgroundImageFix" />
			<feColorMatrix in="SourceAlpha" type="matrix"
				values="0 0 0 0 0 0 0 0 0 0 0 0 0 0 0 0 0 0 127 0" result="hardAlpha" />
			<feOffset dy="4" />
			<feGaussianBlur stdDeviation="2" />
			<feComposite in2="hardAlpha" operator="out" />
			<feColorMatrix type="matrix" values="0 0 0 0 1 0 0 0 0 0.454902 0 0 0 0 0 0 0 0 0.7 0" />
			<feBlend mode="normal" in2="BackgroundImageFix" result="effect1_dropShadow_11932_51918" />
			<feBlend mode="normal" in="SourceGraphic" in2="effect1_dropShadow_11932_51918" result="shape" />
		</filter>
	</defs>
</svg>