<svg width="18" height="18" viewBox="0 0 18 18" fill="none" xmlns="http://www.w3.org/2000/svg">
<path d="M7.64282 6.11387H8.98592C9.01196 6.10999 9.03855 6.11227 9.06355 6.12053C9.08855 6.12878 9.11127 6.14277 9.12989 6.16139C9.14851 6.18001 9.1625 6.20273 9.17076 6.22773C9.17901 6.25273 9.18129 6.27932 9.17741 6.30536V11.759C9.18129 11.785 9.17901 11.8116 9.17076 11.8366C9.1625 11.8616 9.14851 11.8843 9.12989 11.9029C9.11127 11.9216 9.08855 11.9356 9.06355 11.9438C9.03855 11.9521 9.01196 11.9543 8.98592 11.9505H8.24179C8.21575 11.9543 8.18916 11.9521 8.16416 11.9438C8.13916 11.9356 8.11644 11.9216 8.09782 11.9029C8.07921 11.8843 8.06521 11.8616 8.05696 11.8366C8.04871 11.8116 8.04643 11.785 8.05031 11.759V7.45697H8.01469L7.08903 10.4974C7.07925 10.5498 7.05098 10.597 7.00937 10.6303C6.96776 10.6636 6.91558 10.6809 6.86231 10.679H6.0998C6.04653 10.6809 5.99434 10.6636 5.95273 10.6303C5.91112 10.597 5.88286 10.5498 5.87308 10.4974L4.92903 7.44664H4.89265V11.759C4.89812 11.8116 4.88527 11.8645 4.85627 11.9087C4.81255 11.9419 4.75754 11.9566 4.70308 11.9497H3.95895C3.93291 11.9536 3.90632 11.9513 3.88132 11.943C3.85632 11.9348 3.8336 11.9208 3.81498 11.9022C3.79636 11.8836 3.78237 11.8608 3.77412 11.8358C3.76586 11.8108 3.76359 11.7842 3.76746 11.7582V6.30459C3.76359 6.27855 3.76586 6.25197 3.77412 6.22696C3.78237 6.20196 3.79636 6.17924 3.81498 6.16062C3.8336 6.14201 3.85632 6.12801 3.88132 6.11976C3.90632 6.11151 3.93291 6.10923 3.95895 6.11311H5.31048C5.3494 6.11147 5.38771 6.12319 5.41905 6.14631C5.4504 6.16944 5.4729 6.20259 5.48282 6.24025L6.44486 9.44387H6.49924L7.47048 6.24025C7.47708 6.20089 7.49878 6.16565 7.53097 6.14205C7.56316 6.11844 7.60329 6.10833 7.64282 6.11387ZM11.3194 11.9493H10.5462C10.5201 11.9532 10.4935 11.9509 10.4685 11.9427C10.4435 11.9344 10.4208 11.9204 10.4022 11.9018C10.3836 11.8832 10.3696 11.8605 10.3613 11.8354C10.3531 11.8104 10.3508 11.7839 10.3547 11.7578V6.30459C10.3508 6.27855 10.3531 6.25197 10.3613 6.22696C10.3696 6.20196 10.3836 6.17924 10.4022 6.16062C10.4208 6.14201 10.4435 6.12801 10.4685 6.11976C10.4935 6.11151 10.5201 6.10923 10.5462 6.11311H12.7606C12.9601 6.10064 13.1601 6.12835 13.3487 6.1946C13.5373 6.26084 13.7107 6.36428 13.8586 6.49876C13.9945 6.64499 14.0992 6.8174 14.1663 7.00546C14.2334 7.19352 14.2615 7.39328 14.2488 7.59255V8.46382C14.2615 8.66309 14.2334 8.86286 14.1663 9.05092C14.0992 9.23898 13.9945 9.41138 13.8586 9.55761C13.7107 9.6921 13.5373 9.79553 13.3487 9.86178C13.1601 9.92802 12.9601 9.95573 12.7606 9.94327H11.6185C11.546 9.94327 11.5097 9.97659 11.5097 10.0432V11.7586C11.5135 11.7846 11.5111 11.8111 11.5028 11.836C11.4945 11.8609 11.4805 11.8835 11.4619 11.902C11.4433 11.9205 11.4206 11.9345 11.3957 11.9427C11.3707 11.9509 11.3442 11.9532 11.3183 11.9493H11.3194ZM11.6097 8.93604H12.5717C12.6445 8.94359 12.7181 8.93665 12.7881 8.91561C12.8582 8.89458 12.9234 8.85987 12.98 8.81348C13.0694 8.69877 13.1116 8.55424 13.098 8.40944V7.64693C13.1123 7.49934 13.0702 7.3518 12.98 7.23408C12.9234 7.1877 12.8582 7.15299 12.7881 7.13195C12.7181 7.11092 12.6445 7.10398 12.5717 7.11153H11.6089C11.5953 7.10953 11.5815 7.11074 11.5684 7.11506C11.5554 7.11937 11.5436 7.12668 11.5338 7.13639C11.5241 7.1461 11.5168 7.15795 11.5125 7.17099C11.5082 7.18403 11.507 7.1979 11.509 7.21149V8.83608C11.5069 8.8497 11.5081 8.86361 11.5124 8.8767C11.5166 8.88979 11.5239 8.90169 11.5337 8.91145C11.5434 8.9212 11.5553 8.92855 11.5683 8.93288C11.5814 8.93722 11.5953 8.93843 11.6089 8.93642L11.6097 8.93604Z" fill="#FF7400"/>
<path d="M9 17.9999C7.7966 18.0022 6.60513 17.7616 5.49691 17.2926C4.42748 16.8408 3.45582 16.1858 2.63598 15.3639C1.81389 14.5442 1.15889 13.5728 0.707069 12.5034C0.238079 11.3951 -0.00245494 10.2034 1.88897e-05 8.99994C-0.00229174 7.79642 0.238362 6.6048 0.707443 5.49646C1.15923 4.42697 1.81423 3.45538 2.63636 2.63561C3.45618 1.81364 4.42785 1.15863 5.49729 0.706934C6.60541 0.238044 7.79676 -0.00241441 9 -4.36744e-05C10.2034 -0.0023448 11.3949 0.238245 12.5031 0.707317C13.5725 1.15902 14.5442 1.81403 15.364 2.63599C16.1861 3.45576 16.8411 4.42735 17.2929 5.49684C17.7618 6.6051 18.0024 7.79657 18 8.99994C18.0023 10.2033 17.7616 11.3948 17.2926 12.503C16.8407 13.5724 16.1857 14.5439 15.3636 15.3635C14.5438 16.1855 13.5721 16.8405 12.5027 17.2922C11.3946 17.7613 10.2033 18.002 9 17.9999ZM9 1.53187C8.00146 1.52991 7.01286 1.72946 6.09326 2.11859C5.20566 2.49339 4.39918 3.03693 3.71872 3.71905C3.03658 4.3995 2.49296 5.2059 2.11818 6.09352C1.72918 7.01301 1.52985 8.00155 1.53193 8.99994C1.52998 9.99851 1.72975 10.9872 2.11911 11.9067C2.49388 12.7944 3.03732 13.6008 3.71947 14.2812C4.39993 14.9633 5.2064 15.5069 6.09401 15.8817C7.01339 16.2706 8.00175 16.47 9 16.468C9.99854 16.47 10.9871 16.2704 11.9067 15.8813C12.7943 15.5065 13.6008 14.9629 14.2813 14.2808C14.9634 13.6004 15.5071 12.794 15.8818 11.9064C16.2709 10.9869 16.4702 9.99833 16.4681 8.99994C16.47 8.00124 16.2702 7.01243 15.8809 6.09275C15.5061 5.20514 14.9627 4.39873 14.2805 3.71829C13.6001 3.03617 12.7936 2.49263 11.906 2.11782C10.9866 1.72906 9.99823 1.52977 9 1.53187Z" fill="#FF7400"/>
</svg>
