<svg width="21" height="21" viewBox="0 0 21 21" fill="none" xmlns="http://www.w3.org/2000/svg">
<g id="Group 8322">
<g id="MotoPuntos Icons">
<path id="Trazado 15" d="M8.54938 6.84732H10.0526C10.0816 6.8431 10.1112 6.84571 10.139 6.85493C10.1668 6.86416 10.1921 6.87975 10.2128 6.90047C10.2335 6.92119 10.2491 6.94645 10.2583 6.97426C10.2675 7.00206 10.2701 7.03164 10.2659 7.06063V13.159C10.2693 13.1876 10.266 13.2166 10.2564 13.2438C10.2468 13.2709 10.2311 13.2955 10.2105 13.3157C10.1899 13.3358 10.1649 13.3509 10.1376 13.3599C10.1102 13.3688 10.0811 13.3714 10.0526 13.3673H9.21949C9.1905 13.3715 9.16093 13.3689 9.13312 13.3597C9.10531 13.3505 9.08005 13.3349 9.05933 13.3142C9.03861 13.2935 9.02302 13.2682 9.01379 13.2404C9.00457 13.2126 9.00196 13.183 9.00619 13.154V8.34451H8.96594L7.93059 11.7484C7.91933 11.8067 7.88758 11.859 7.84107 11.8959C7.79456 11.9329 7.73637 11.9519 7.67703 11.9496H6.82481C6.76547 11.9519 6.70728 11.9329 6.66077 11.8959C6.61426 11.859 6.5825 11.8067 6.57125 11.7484L5.51578 8.33646H5.47452V13.156C5.48062 13.2147 5.46641 13.2736 5.43428 13.323C5.3851 13.3602 5.32329 13.3764 5.26222 13.3683H4.43012C4.40113 13.3725 4.37155 13.3699 4.34374 13.3607C4.31594 13.3515 4.29067 13.3359 4.26995 13.3152C4.24924 13.2945 4.23364 13.2692 4.22442 13.2414C4.21519 13.2136 4.21259 13.184 4.21681 13.155V7.05661C4.21259 7.02762 4.21519 6.99804 4.22442 6.97023C4.23364 6.94243 4.24924 6.91716 4.26995 6.89644C4.29067 6.87573 4.31594 6.86013 4.34374 6.85091C4.37155 6.84168 4.40113 6.83908 4.43012 6.8433H5.93937C5.98292 6.84138 6.02582 6.8544 6.06096 6.8802C6.0961 6.906 6.12136 6.94304 6.13256 6.98517L7.20816 10.5671H7.26953L8.35519 6.98517C8.36376 6.9417 8.38868 6.90318 8.42481 6.87754C8.46094 6.85189 8.50552 6.84108 8.54938 6.84732ZM12.6586 13.3673H11.7963C11.7673 13.3715 11.7377 13.3689 11.7099 13.3597C11.6821 13.3505 11.6569 13.3349 11.6361 13.3142C11.6154 13.2935 11.5998 13.2682 11.5906 13.2404C11.5814 13.2126 11.5788 13.183 11.583 13.154V7.0556C11.5788 7.02661 11.5814 6.99704 11.5906 6.96923C11.5998 6.94142 11.6154 6.91615 11.6361 6.89544C11.6569 6.87472 11.6821 6.85913 11.7099 6.8499C11.7377 6.84068 11.7673 6.83807 11.7963 6.84229H14.2725C14.4956 6.82851 14.7191 6.8596 14.93 6.93374C15.1408 7.00789 15.3347 7.12357 15.5 7.27394C15.6521 7.43734 15.7692 7.63002 15.8443 7.84021C15.9194 8.0504 15.9508 8.27369 15.9367 8.49644V9.47041C15.9508 9.69317 15.9194 9.91645 15.8443 10.1266C15.7692 10.3368 15.6521 10.5295 15.5 10.6929C15.3347 10.8433 15.1408 10.959 14.93 11.0331C14.7191 11.1072 14.4956 11.1383 14.2725 11.1246H12.9936C12.9125 11.1246 12.8719 11.1618 12.8719 11.2362V13.154C12.8761 13.183 12.8735 13.2126 12.8643 13.2404C12.8551 13.2682 12.8395 13.2935 12.8188 13.3142C12.798 13.3349 12.7728 13.3505 12.745 13.3597C12.7172 13.3689 12.6876 13.3715 12.6586 13.3673ZM12.9836 9.99865H14.0592C14.1406 10.0072 14.2229 9.99949 14.3013 9.976C14.3797 9.95251 14.4527 9.9137 14.516 9.86181C14.6159 9.73353 14.663 9.57193 14.6478 9.41004V8.55782C14.6639 8.39273 14.6168 8.22769 14.516 8.09598C14.4527 8.04409 14.3797 8.00528 14.3013 7.9818C14.2229 7.95831 14.1406 7.95061 14.0592 7.95915H12.9836C12.9685 7.95737 12.9532 7.95904 12.9388 7.96402C12.9245 7.969 12.9114 7.97718 12.9007 7.98792C12.8899 7.99867 12.8818 8.01171 12.8768 8.02607C12.8718 8.04043 12.8701 8.05574 12.8719 8.07083V9.88697C12.8694 9.90237 12.8706 9.91813 12.8753 9.93301C12.88 9.94789 12.888 9.96148 12.8989 9.9727C12.9097 9.98392 12.923 9.99247 12.9377 9.99767C12.9524 10.0029 12.9681 10.0046 12.9836 10.0027V9.99865Z" fill="#686E7F"/>
<path id="Sustracci&#195;&#179;n 1" d="M10.0676 20.1358C7.74483 20.1372 5.49312 19.3348 3.69457 17.8649C1.89603 16.3951 0.661432 14.3482 0.200293 12.0716C-0.260846 9.79508 0.0798739 7.4291 1.16464 5.37517C2.2494 3.32124 4.01138 1.70589 6.1516 0.803221C8.61038 -0.235505 11.3811 -0.254939 13.8542 0.749195C16.3273 1.75333 18.3003 3.69878 19.339 6.15756C20.3777 8.61635 20.3971 11.3871 19.393 13.8602C18.3889 16.3333 16.4434 18.3062 13.9846 19.345C12.7455 19.8695 11.4132 20.1385 10.0676 20.1358ZM10.0676 1.72286C8.14128 1.72381 6.2745 2.39067 4.78357 3.61046C3.29264 4.83025 2.26924 6.52796 1.88676 8.41594C1.50429 10.3039 1.78626 12.2661 2.6849 13.97C3.58354 15.6738 5.0436 17.0147 6.81768 17.7653C8.85172 18.5944 11.1305 18.5888 13.1605 17.7497C15.1904 16.9105 16.808 15.3054 17.6629 13.2821C18.5177 11.2587 18.541 8.98001 17.7277 6.93959C16.9144 4.89918 15.3299 3.26135 13.3176 2.3809C12.2895 1.94513 11.1842 1.72132 10.0676 1.72286Z" fill="#686E7F"/>
</g>
</g>
</svg>
