<svg width="20" height="21" viewBox="0 0 20 21" fill="none" xmlns="http://www.w3.org/2000/svg">
<g id="Group 8321">
<g id="Group 7195">
<g id="Group 7189">
<g id="Group 7188">
<path id="Vector 4 (Stroke)" fill-rule="evenodd" clip-rule="evenodd" d="M9.52041 1.00476C5.99961 1.11297 2.48878 3.05945 1.02318 6.12058L1 6.169L1.32527 13.2661L16.2013 19.517L16.2827 19.4828C16.9678 19.1944 17.4455 18.8796 17.8074 18.4323C18.1662 17.9888 18.3965 17.4324 18.6198 16.6911L18.6289 16.6609V14.0981C18.9275 12.4821 19.0495 11.2787 18.9818 10.1908C18.9137 9.09615 18.6543 8.12992 18.2054 6.98772C16.6328 2.64035 13.0561 0.89609 9.52041 1.00476ZM17.8636 7.27494C18.2702 8.33221 18.4985 9.22147 18.5604 10.2174C18.6252 11.2584 18.509 12.4273 18.2103 14.0394L18.2067 14.0588V14.0603C16.61 13.9247 15.4136 13.7357 14.3776 13.4045C13.3267 13.0684 12.4328 12.5834 11.4516 11.8464V10.4557L8.9863 8.83659C8.74946 8.17926 8.76605 7.62722 8.95551 7.22372C9.14166 6.82724 9.51047 6.54015 10.054 6.43354C11.9552 7.25726 13.7732 7.26238 16.825 7.27097C17.1561 7.2719 17.5018 7.27287 17.8636 7.27494ZM18.2067 14.487C16.5804 14.3502 15.3375 14.1575 14.2498 13.8097C13.1152 13.4469 12.1583 12.9182 11.1131 12.1222L11.0294 12.0584V10.686L8.64028 9.11693L8.61578 9.05267C8.32645 8.2939 8.31506 7.59311 8.57383 7.04198C8.83519 6.48532 9.35466 6.11903 10.0447 6.00321L10.1067 5.99281L10.1642 6.01823C12.0021 6.83021 13.731 6.83571 16.8404 6.84559C17.1162 6.84646 17.4028 6.84737 17.7013 6.84889C16.1497 2.90568 12.8344 1.32827 9.53329 1.42973C6.15637 1.53352 2.82484 3.39329 1.42669 6.25723L1.73469 12.9775L16.2005 19.056C16.8023 18.7939 17.1902 18.522 17.48 18.1638C17.7814 17.7913 17.991 17.3081 18.2067 16.5977V14.487Z" fill="#686E7F" stroke="#686E7F" stroke-width="1.5"/>
</g>
<path id="Ellipse 46" d="M9.14178 13.2281C9.14178 13.1124 9.04722 13.0096 8.91952 13.0096C8.79183 13.0096 8.69727 13.1124 8.69727 13.2281C8.69727 13.3438 8.79183 13.4467 8.91952 13.4467C9.04722 13.4467 9.14178 13.3438 9.14178 13.2281Z" fill="white" fill-opacity="0.01" stroke="#686E7F" stroke-width="1.5"/>
</g>
<path id="Ellipse 48" d="M8.31202 13.7982C8.31202 13.7015 8.23323 13.6171 8.12867 13.6171C8.02411 13.6171 7.94531 13.7015 7.94531 13.7982C7.94531 13.895 8.02411 13.9794 8.12867 13.9794C8.23323 13.9794 8.31202 13.895 8.31202 13.7982Z" fill="#C4C4C4" fill-opacity="0.01" stroke="#686E7F"/>
</g>
</g>
</svg>
