<svg width="25" height="20" viewBox="0 0 25 20" fill="none" xmlns="http://www.w3.org/2000/svg">
<path id="Vector" d="M21.8069 8.58353L19.1079 10.2015L19.1066 10.2022C18.0254 10.8482 16.625 10.4832 15.999 9.38683C15.9989 9.38673 15.9989 9.38664 15.9988 9.38655C15.9987 9.38642 15.9987 9.38629 15.9986 9.38616L12.8154 3.81652L12.5 3.26468L12.1846 3.81652L9.0014 9.38616C9.00133 9.38629 9.00125 9.38642 9.00118 9.38655C9.00113 9.38664 9.00107 9.38673 9.00102 9.38683C8.37553 10.4824 6.97031 10.8496 5.89114 10.2009L5.89158 10.2011L6.40625 9.34375L5.89093 10.2007L21.8069 8.58353ZM21.8069 8.58353L19.307 15.25H5.693L21.8069 8.58353ZM22.9822 7.73131L22.5268 7.65844L22.3307 7.23127C22.2766 7.11335 22.25 6.99721 22.25 6.875C22.25 6.39213 22.6421 6 23.125 6C23.6079 6 24 6.39213 24 6.875C24 7.35787 23.6079 7.75 23.125 7.75C23.1251 7.75 23.1224 7.75 23.1162 7.74958C23.11 7.74916 23.1011 7.74838 23.0889 7.74695C23.0622 7.74384 23.0314 7.73918 22.9822 7.73131ZM3.19199 8.58064L3.1268 8.4068L3.11211 8.36763L2.82506 7.60215L2.48154 7.65711L2.30544 8.04846L2.94286 8.43109L3.06736 8.50583L3.19199 8.58064ZM13.0484 2.54797L12.5 2.99898L11.9516 2.54797C11.7461 2.37894 11.625 2.13872 11.625 1.875C11.625 1.39213 12.0171 1 12.5 1C12.9829 1 13.375 1.39213 13.375 1.875C13.375 2.13872 13.2539 2.37894 13.0484 2.54797ZM12.5 18.5H20.25V19H4.75V18.5H12.5Z" fill="black" fill-opacity="0.01" stroke="#686E7F" stroke-width="2"/>
</svg>
