<svg xmlns="http://www.w3.org/2000/svg" fill="none" viewBox="0 0 44 43"><g fill-rule="evenodd" clip-rule="evenodd" filter="url(#a)"><path fill="url(#b)" d="M10.04 9.54v7.97h7.97V9.54h-7.97Zm-2.66 0a2.66 2.66 0 0 1 2.66-2.66h7.98a2.66 2.66 0 0 1 2.65 2.66v7.97a2.66 2.66 0 0 1-2.66 2.66h-7.97a2.66 2.66 0 0 1-2.66-2.66V9.54Z"/><path fill="url(#c)" d="M10.04 25.49v7.97h7.97v-7.97h-7.97Zm-2.66 0a2.66 2.66 0 0 1 2.66-2.66h7.98a2.66 2.66 0 0 1 2.65 2.66v7.97a2.66 2.66 0 0 1-2.66 2.66h-7.97a2.66 2.66 0 0 1-2.66-2.66v-7.97Z"/><path fill="url(#d)" d="M25.99 9.54v7.97h7.97V9.54h-7.97Zm-2.66 0a2.66 2.66 0 0 1 2.66-2.66h7.97a2.66 2.66 0 0 1 2.66 2.66v7.97a2.66 2.66 0 0 1-2.66 2.66h-7.97a2.66 2.66 0 0 1-2.66-2.66V9.54Z"/><path fill="url(#e)" d="M24.66 22.83c.73 0 1.33.6 1.33 1.33v5.31a1.33 1.33 0 1 1-2.66 0v-5.31c0-.74.6-1.33 1.33-1.33Z"/><path fill="url(#f)" d="M31.3 24.16a1.33 1.33 0 1 0-2.66 0v9.3h-3.98a1.33 1.33 0 1 0 0 2.66h5.31c.74 0 1.33-.6 1.33-1.33v-6.65h3.99a1.33 1.33 0 1 0 0-2.65H31.3v-1.33Z"/><path fill="url(#g)" d="M35.29 30.8c.73 0 1.33.6 1.33 1.33v2.66a1.33 1.33 0 1 1-2.66 0v-2.66c0-.73.6-1.33 1.33-1.33Z"/></g><defs><linearGradient id="b" x1="14.03" x2="14.03" y1="6.88" y2="20.17" gradientUnits="userSpaceOnUse"><stop stop-color="#fff"/><stop offset="1" stop-color="#E7E7E7"/></linearGradient><linearGradient id="c" x1="14.03" x2="14.03" y1="22.83" y2="36.12" gradientUnits="userSpaceOnUse"><stop stop-color="#fff"/><stop offset="1" stop-color="#E7E7E7"/></linearGradient><linearGradient id="d" x1="29.97" x2="29.97" y1="6.88" y2="20.17" gradientUnits="userSpaceOnUse"><stop stop-color="#fff"/><stop offset="1" stop-color="#E7E7E7"/></linearGradient><linearGradient id="e" x1="24.66" x2="24.66" y1="22.83" y2="30.8" gradientUnits="userSpaceOnUse"><stop stop-color="#fff"/><stop offset="1" stop-color="#E7E7E7"/></linearGradient><linearGradient id="f" x1="29.97" x2="29.97" y1="22.83" y2="36.12" gradientUnits="userSpaceOnUse"><stop stop-color="#fff"/><stop offset="1" stop-color="#E7E7E7"/></linearGradient><linearGradient id="g" x1="35.29" x2="35.29" y1="30.8" y2="36.12" gradientUnits="userSpaceOnUse"><stop stop-color="#fff"/><stop offset="1" stop-color="#E7E7E7"/></linearGradient><filter id="a" width="35.23" height="35.23" x="4.38" y="5.65" color-interpolation-filters="sRGB" filterUnits="userSpaceOnUse"><feFlood flood-opacity="0" result="BackgroundImageFix"/><feColorMatrix in="SourceAlpha" result="hardAlpha" values="0 0 0 0 0 0 0 0 0 0 0 0 0 0 0 0 0 0 127 0"/><feOffset dy="1.77"/><feGaussianBlur stdDeviation="1.5"/><feColorMatrix values="0 0 0 0 0 0 0 0 0 0 0 0 0 0 0 0 0 0 0.2 0"/><feBlend in2="BackgroundImageFix" result="effect1_dropShadow_11989_6219"/><feBlend in="SourceGraphic" in2="effect1_dropShadow_11989_6219" result="shape"/></filter></defs></svg>
